<?xml version="1.0" encoding="UTF-8"?>
<svg width="64" height="64" version="1.1" viewBox="0 0 64 64" xmlns="http://www.w3.org/2000/svg" xmlns:cc="http://creativecommons.org/ns#" xmlns:dc="http://purl.org/dc/elements/1.1/" xmlns:rdf="http://www.w3.org/1999/02/22-rdf-syntax-ns#" xmlns:xlink="http://www.w3.org/1999/xlink">
 <metadata>
  <rdf:RDF>
   <cc:Work rdf:about="">
    <dc:format>image/svg+xml</dc:format>
    <dc:type rdf:resource="http://purl.org/dc/dcmitype/StillImage"/>
   </cc:Work>
  </rdf:RDF>
 </metadata>
 <defs>
  <style type="text/css"/>
  <style type="text/css"/>
  <linearGradient id="linearGradient2312" x1="136.82" x2="100.27" y1="-8.2087" y2="73.081" gradientUnits="userSpaceOnUse">
   <stop stop-color="#073c85" stop-opacity=".98039" offset="0"/>
   <stop stop-color="#029de1" stop-opacity=".99216" offset="1"/>
  </linearGradient>
  <linearGradient id="linearGradient14751" x1="99.991" x2="139.24" y1="64.732" y2="64.732" gradientUnits="userSpaceOnUse">
   <stop stop-color="#810c26" offset="0"/>
   <stop stop-color="#ce223e" offset="1"/>
  </linearGradient>
  <linearGradient id="linearGradient25850" x1="152.83" x2="135.91" y1="21.954" y2="67.55" gradientUnits="userSpaceOnUse">
   <stop stop-color="#d36709" offset="0"/>
   <stop stop-color="#ffef5c" offset="1"/>
  </linearGradient>
  <linearGradient id="linearGradient46598" x1="143.7" x2="143.7" y1="77.755" y2="92.645" gradientTransform="translate(0 -4.4101)" gradientUnits="userSpaceOnUse">
   <stop stop-color="#2a8627" offset="0"/>
   <stop stop-color="#e5f09c" stop-opacity=".92549" offset="1"/>
  </linearGradient>
  <linearGradient id="linearGradient56076" x1="19.771" x2="19.771" y1="4.5001" y2="59.5" gradientTransform="translate(2.3407)" gradientUnits="userSpaceOnUse">
   <stop stop-color="#093c84" stop-opacity=".99608" offset="0"/>
   <stop stop-color="#3fbef2" offset="1"/>
  </linearGradient>
  <linearGradient id="linearGradient66869" x1="6.6438" x2="38.514" y1="55.107" y2="55.107" gradientUnits="userSpaceOnUse">
   <stop stop-color="#ffef5c" offset="0"/>
   <stop stop-color="#d46a0b" offset="1"/>
  </linearGradient>
 </defs>
 <circle cx="-1248.7" cy="-1241.6" r="0" fill="#5e4aa6"/>
 <circle cx="-149.15" cy="23.855" r="0" fill="#5e4aa6" fill-rule="evenodd"/>
 <g transform="translate(-.23064 2.9947e-5)">
  <g transform="matrix(.57629 0 0 .57629 -26.431 7.819)">
   <path d="m139.22 56.382h-39.51l0.55767 19.072h38.983z" fill="url(#linearGradient14751)"/>
   <path d="m135.74-5.7592s11.507 11.181 4.885 21.112c-6.6217 9.9309-32.318 45.13-32.318 45.13s-7.1698 11.889 2.1762 14.972h-20.427s-10.523-1.8831-4.927-11.107 50.611-70.106 50.611-70.106z" fill="url(#linearGradient2312)"/>
   <path d="m151.48 47.94v27.849s0.49041 13.89-15.562 13.89v-41.643z" fill="url(#linearGradient46598)"/>
   <path d="m152.83 21.954s-1.3588 3.7848-1.3588 7.178v23.218s1.4974 23.105-12.223 23.105h-19.491s15.08-4.9267 15.08-19.072v-15.253s-1.5533-19.175 17.994-19.175z" fill="url(#linearGradient25850)"/>
  </g>
  <path d="m2.8161 4.5v11.458h6.875v6.875h-6.875v4.5833h25.722l16.362-22.917zm0 25.208v4.5833h21.069l3.2502-4.5833zm0 6.875v4.5833h16.616l3.1048-4.5833z" fill="url(#linearGradient56076)" stroke-width="2.2917" style="paint-order:normal"/>
 </g>
 <path d="m18.858 43.458v5.2616s-0.43979 5.2616 7.9703 5.2616h14.946v5.5185h-38.958v-16.042z" fill="url(#linearGradient66869)"/>
</svg>
