<?xml version="1.0" encoding="UTF-8" standalone="no"?>
<svg
   width="64"
   height="64"
   version="1.1"
   viewBox="0 0 16.933 16.933"
   id="svg54"
   sodipodi:docname="breeze-settings.svg"
   xml:space="preserve"
   inkscape:version="1.2.1 (9c6d41e410, 2022-07-14, custom)"
   xmlns:inkscape="http://www.inkscape.org/namespaces/inkscape"
   xmlns:sodipodi="http://sodipodi.sourceforge.net/DTD/sodipodi-0.dtd"
   xmlns:xlink="http://www.w3.org/1999/xlink"
   xmlns="http://www.w3.org/2000/svg"
   xmlns:svg="http://www.w3.org/2000/svg"
   xmlns:rdf="http://www.w3.org/1999/02/22-rdf-syntax-ns#"
   xmlns:cc="http://creativecommons.org/ns#"
   xmlns:dc="http://purl.org/dc/elements/1.1/"><sodipodi:namedview
     id="namedview56"
     pagecolor="#ffffff"
     bordercolor="#999999"
     borderopacity="1"
     inkscape:showpageshadow="0"
     inkscape:pageopacity="0"
     inkscape:pagecheckerboard="0"
     inkscape:deskcolor="#d1d1d1"
     showgrid="false"
     inkscape:zoom="0.70710678"
     inkscape:cx="-29.698485"
     inkscape:cy="-166.17009"
     inkscape:window-width="1920"
     inkscape:window-height="965"
     inkscape:window-x="0"
     inkscape:window-y="40"
     inkscape:window-maximized="1"
     inkscape:current-layer="svg54" /><defs
     id="defs22"><linearGradient
       inkscape:collect="always"
       id="linearGradient69293"><stop
         style="stop-color:#ffff01;stop-opacity:1"
         offset="0"
         id="stop69289" /><stop
         style="stop-color:#ffff01;stop-opacity:0"
         offset="1"
         id="stop69291" /></linearGradient><linearGradient
       inkscape:collect="always"
       id="linearGradient66040"><stop
         style="stop-color:#fd00fe;stop-opacity:1"
         offset="0"
         id="stop66036" /><stop
         style="stop-color:#ff00ff;stop-opacity:0"
         offset="1"
         id="stop66038" /></linearGradient><linearGradient
       inkscape:collect="always"
       id="linearGradient64788"><stop
         style="stop-color:#39228e;stop-opacity:1"
         offset="0"
         id="stop64784" /><stop
         style="stop-color:#3d2088;stop-opacity:0"
         offset="1"
         id="stop64786" /></linearGradient><linearGradient
       inkscape:collect="always"
       id="linearGradient64571"><stop
         style="stop-color:#fd3800;stop-opacity:1"
         offset="0"
         id="stop64567" /><stop
         style="stop-color:#fd3a00;stop-opacity:0"
         offset="1"
         id="stop64569" /></linearGradient><linearGradient
       inkscape:collect="always"
       id="linearGradient59011"><stop
         style="stop-color:#0674a4;stop-opacity:1"
         offset="0"
         id="stop59003" /><stop
         style="stop-color:#f3f8fa;stop-opacity:1"
         offset="0.39978915"
         id="stop59005" /><stop
         style="stop-color:#fe00fe;stop-opacity:1"
         offset="1"
         id="stop59009" /></linearGradient><linearGradient
       inkscape:collect="always"
       id="linearGradient55825"><stop
         style="stop-color:#4eebe6;stop-opacity:1"
         offset="0"
         id="stop55817" /><stop
         style="stop-color:#f6fffe;stop-opacity:1"
         offset="0.65861887"
         id="stop55821" /><stop
         style="stop-color:#2f2bb0;stop-opacity:1"
         offset="1"
         id="stop55823" /></linearGradient><linearGradient
       inkscape:collect="always"
       id="linearGradient52501"><stop
         style="stop-color:#fff501;stop-opacity:1"
         offset="0"
         id="stop52495" /><stop
         style="stop-color:#fefefe;stop-opacity:1"
         offset="0.6249119"
         id="stop52497" /><stop
         style="stop-color:#3e1f86;stop-opacity:1"
         offset="1"
         id="stop52499" /></linearGradient><linearGradient
       inkscape:collect="always"
       id="linearGradient47306"><stop
         style="stop-color:#fd2300;stop-opacity:1"
         offset="0"
         id="stop47302" /><stop
         style="stop-color:#fffef8;stop-opacity:1"
         offset="0.39270771"
         id="stop51249" /><stop
         style="stop-color:#ffff01;stop-opacity:1"
         offset="1"
         id="stop47304" /></linearGradient><linearGradient
       inkscape:collect="always"
       id="linearGradient41918"><stop
         style="stop-color:#fe00fe;stop-opacity:1"
         offset="0"
         id="stop41910" /><stop
         style="stop-color:#ff00ff;stop-opacity:1"
         offset="0.39978915"
         id="stop41912" /><stop
         style="stop-color:#4621ac;stop-opacity:1"
         offset="0.84918976"
         id="stop41914" /><stop
         style="stop-color:#2330b2;stop-opacity:1"
         offset="1"
         id="stop41916" /></linearGradient><linearGradient
       inkscape:collect="always"
       id="linearGradient34797"><stop
         style="stop-color:#471979;stop-opacity:1"
         offset="0"
         id="stop34791" /><stop
         style="stop-color:#2d2a9f;stop-opacity:1"
         offset="0.20056486"
         id="stop39629" /><stop
         style="stop-color:#50f4e9;stop-opacity:1"
         offset="0.6249119"
         id="stop34793" /><stop
         style="stop-color:#50f4e9;stop-opacity:1"
         offset="1"
         id="stop34795" /></linearGradient><linearGradient
       inkscape:collect="always"
       id="linearGradient30645"><stop
         style="stop-color:#fd0a00;stop-opacity:1"
         offset="0"
         id="stop30641" /><stop
         style="stop-color:#ffff01;stop-opacity:1"
         offset="0.6249119"
         id="stop33476" /><stop
         style="stop-color:#fefe00;stop-opacity:1"
         offset="1"
         id="stop30643" /></linearGradient><linearGradient
       inkscape:collect="always"
       id="linearGradient23098"><stop
         style="stop-color:#ffff00;stop-opacity:1"
         offset="0"
         id="stop23094" /><stop
         style="stop-color:#ffff01;stop-opacity:1"
         offset="0.39978915"
         id="stop29320" /><stop
         style="stop-color:#14afad;stop-opacity:1"
         offset="0.78772509"
         id="stop28137" /><stop
         style="stop-color:#005ba0;stop-opacity:1"
         offset="1"
         id="stop23096" /></linearGradient><inkscape:perspective
       sodipodi:type="inkscape:persp3d"
       inkscape:vp_x="0 : 8.4665 : 1"
       inkscape:vp_y="0 : 1000 : 0"
       inkscape:vp_z="16.933 : 8.4665 : 1"
       inkscape:persp3d-origin="8.4665 : 5.6443333 : 1"
       id="perspective318" /><linearGradient
       id="linearGradient1455-3"
       x1="4"
       x2="60"
       y1="27"
       y2="27"
       gradientTransform="matrix(0.26458,0,0,0.27929,-25.976163,-0.20428)"
       gradientUnits="userSpaceOnUse"><stop
         stop-color="#555a5f"
         offset="0"
         id="stop2" /><stop
         stop-color="#4b4f53"
         offset="1"
         id="stop4" /></linearGradient><linearGradient
       id="linearGradient17498-6"
       x1="4"
       x2="60"
       y1="9"
       y2="45"
       gradientTransform="matrix(0.25513,0,0,0.26458,-25.673803,0.19259)"
       gradientUnits="userSpaceOnUse"><stop
         stop-color="#3fe3e7"
         offset="0"
         id="stop7" /><stop
         stop-color="#066bbc"
         offset="1"
         id="stop9" /></linearGradient><linearGradient
       id="linearGradient929"
       x1="32"
       x2="32"
       y1="44"
       y2="52"
       gradientTransform="matrix(0.21166,0,0,0.26458,1.6935,-0.071991)"
       gradientUnits="userSpaceOnUse"><stop
         stop-color="#818990"
         offset="0"
         id="stop12" /><stop
         stop-color="#9fa8b0"
         offset="1"
         id="stop14" /></linearGradient><linearGradient
       id="linearGradient1465"
       x1="53.237"
       x2="66.207"
       y1="14.657"
       y2="27.627"
       gradientTransform="matrix(0.19999,0,0,0.19999,-29.224163,4.0374)"
       gradientUnits="userSpaceOnUse"><stop
         stop-color="#2cbbd9"
         offset="0"
         id="stop17" /><stop
         stop-color="#178ec9"
         offset="1"
         id="stop19" /></linearGradient><linearGradient
       inkscape:collect="always"
       xlink:href="#linearGradient23098"
       id="linearGradient23092"
       x1="73.125877"
       y1="-15.321244"
       x2="65.337669"
       y2="-0.82718611"
       gradientUnits="userSpaceOnUse"
       gradientTransform="matrix(0.66507085,0,0,0.66507085,-40.816505,10.806076)" /><linearGradient
       inkscape:collect="always"
       xlink:href="#linearGradient30645"
       id="linearGradient30639"
       x1="71.108818"
       y1="-12.132354"
       x2="85.687645"
       y2="-5.0558782"
       gradientUnits="userSpaceOnUse"
       gradientTransform="matrix(0.66507085,0,0,0.66507085,-40.816505,10.806076)" /><linearGradient
       inkscape:collect="always"
       xlink:href="#linearGradient34797"
       id="linearGradient34375"
       x1="83.613602"
       y1="-6.5663948"
       x2="74.726318"
       y2="8.2589989"
       gradientUnits="userSpaceOnUse"
       gradientTransform="matrix(0.66507085,0,0,0.66507085,-40.816505,10.806076)" /><linearGradient
       inkscape:collect="always"
       xlink:href="#linearGradient41918"
       id="linearGradient40804"
       x1="62.16737"
       y1="-3.1760175"
       x2="76.527374"
       y2="6.9490795"
       gradientUnits="userSpaceOnUse"
       gradientTransform="matrix(0.66507085,0,0,0.66507085,-40.816505,10.806076)" /><linearGradient
       inkscape:collect="always"
       xlink:href="#linearGradient47306"
       id="linearGradient47308"
       x1="73.972839"
       y1="-15.440614"
       x2="71.166252"
       y2="-9.0858698"
       gradientUnits="userSpaceOnUse"
       gradientTransform="matrix(0.66507085,0,0,0.66507085,-40.816505,10.806076)" /><linearGradient
       inkscape:collect="always"
       xlink:href="#linearGradient52501"
       id="linearGradient51941"
       x1="79.287018"
       y1="-6.525722"
       x2="85.970284"
       y2="-3.9364455"
       gradientUnits="userSpaceOnUse"
       gradientTransform="matrix(0.66507085,0,0,0.66507085,-40.816505,10.806076)" /><linearGradient
       inkscape:collect="always"
       xlink:href="#linearGradient55825"
       id="linearGradient55677"
       x1="77.043907"
       y1="1.6732004"
       x2="74.375626"
       y2="8.3152218"
       gradientUnits="userSpaceOnUse"
       gradientTransform="matrix(0.66507085,0,0,0.66507085,-40.816505,10.806076)" /><linearGradient
       inkscape:collect="always"
       xlink:href="#linearGradient59011"
       id="linearGradient58449"
       x1="62.217876"
       y1="-3.5495496"
       x2="69.179726"
       y2="-0.66212547"
       gradientUnits="userSpaceOnUse"
       gradientTransform="matrix(0.66507085,0,0,0.66507085,-40.816505,10.806076)" /><linearGradient
       inkscape:collect="always"
       xlink:href="#linearGradient64571"
       id="linearGradient64573"
       x1="8.4665003"
       y1="-6.9355092"
       x2="8.4665003"
       y2="-4.0967083"
       gradientUnits="userSpaceOnUse"
       gradientTransform="translate(-2.3871712e-7,12.761588)" /><linearGradient
       inkscape:collect="always"
       xlink:href="#linearGradient64788"
       id="linearGradient64790"
       x1="22.40906"
       y1="8.4665003"
       x2="19.549068"
       y2="8.4665003"
       gradientUnits="userSpaceOnUse"
       gradientTransform="translate(-11.301025)" /><linearGradient
       inkscape:collect="always"
       xlink:href="#linearGradient66040"
       id="linearGradient66042"
       x1="8.4665003"
       y1="22.213844"
       x2="8.4665003"
       y2="19.088718"
       gradientUnits="userSpaceOnUse"
       gradientTransform="translate(7.6128288e-7,-11.106922)" /><linearGradient
       inkscape:collect="always"
       xlink:href="#linearGradient69293"
       id="linearGradient69295"
       x1="-5.2708817"
       y1="8.4665003"
       x2="-2.0488641"
       y2="8.4665003"
       gradientUnits="userSpaceOnUse"
       gradientTransform="translate(11.095846)" /></defs><metadata
     id="metadata24"><rdf:RDF><cc:Work
         rdf:about=""><dc:format>image/svg+xml</dc:format><dc:type
           rdf:resource="http://purl.org/dc/dcmitype/StillImage" /></cc:Work></rdf:RDF></metadata><path
     id="path23043"
     style="fill:url(#linearGradient34375);fill-opacity:1;stroke:none;stroke-width:0.175963px;stroke-linecap:butt;stroke-linejoin:miter;stroke-opacity:1"
     d="m 10.438962,11.801368 c -0.0035,0.04242 -0.0071,0.08252 -0.01031,0.131285 -0.0051,0.07724 -0.0098,0.162114 -0.0134,0.253634 -0.0037,0.09152 -0.0062,0.189719 -0.0072,0.293501 -0.0011,0.103783 -6.03e-4,0.213152 0.0021,0.327182 0.0013,0.05701 0.0034,0.115045 0.0059,0.174245 0.0025,0.0592 0.0055,0.119642 0.0093,0.180775 0.0075,0.122264 0.02053,0.264933 0.0323,0.421349 0.0059,0.07821 0.01155,0.159914 0.01581,0.244011 0.0043,0.0841 0.0071,0.170568 0.0079,0.25879 4.11e-4,0.04411 4.42e-4,0.08854 -3.44e-4,0.133347 -7.98e-4,0.04481 -0.0023,0.09012 -0.0045,0.135409 -0.0022,0.04529 -0.0051,0.09055 -0.0089,0.136097 -0.0039,0.04555 -0.0087,0.0912 -0.01443,0.136784 -0.0057,0.04559 -0.01245,0.09138 -0.02028,0.136784 -0.0078,0.0454 -0.01665,0.09041 -0.02681,0.135409 -0.01015,0.045 -0.02167,0.09 -0.03437,0.134378 -0.0127,0.04438 -0.0268,0.08844 -0.04227,0.131972 -0.01548,0.04353 -0.03239,0.08641 -0.05086,0.12888 -0.01848,0.04247 -0.03844,0.08426 -0.06014,0.125442 -0.0217,0.04118 -0.04496,0.08165 -0.07011,0.121319 -0.01258,0.01984 -0.0257,0.03969 -0.03918,0.05911 -0.01348,0.01942 -0.02751,0.03842 -0.04193,0.05739 -0.01441,0.01897 -0.0293,0.03786 -0.04468,0.05636 -0.01538,0.0185 -0.031059,0.03665 -0.047426,0.05464 -0.016367,0.018 -0.03348,0.0358 -0.050865,0.05327 -0.017385,0.01747 -0.035182,0.03464 -0.053611,0.05155 -0.018429,0.01691 -0.037204,0.0335 -0.056704,0.04983 -0.019507,0.01633 -0.039538,0.0324 -0.060142,0.04812 -0.020611,0.01572 -0.041846,0.03097 -0.063581,0.04605 -0.021735,0.01508 -0.044121,0.02992 -0.067017,0.04433 -0.022898,0.01441 -0.046369,0.02855 -0.070454,0.04227 -0.024082,0.01372 -0.048936,0.02721 -0.074234,0.04021 -0.025299,0.013 -0.051131,0.02555 -0.077672,0.0378 -0.026543,0.01225 -0.053638,0.02393 -0.081452,0.0354 -0.027813,0.01147 -0.056119,0.02267 -0.085232,0.03334 -0.02911,0.01067 -0.058919,0.02109 -0.089356,0.03093 -0.03044,0.0098 -0.061685,0.0192 -0.09348,0.02818 -0.031797,0.009 -0.064425,0.01734 -0.097605,0.02543 -0.03318,0.0081 -0.066792,0.01585 -0.1013847,0.02303 -0.03459,0.0072 -0.070164,0.0137 -0.1061965,0.01993 -0.036034,0.0062 -0.072475,0.01226 -0.1099775,0.01753 -0.00392,5.51e-4 -0.00809,8.31e-4 -0.012031,0.0014 0.018988,-0.0011 0.037543,-0.0023 0.054988,-0.0041 0.4724457,-0.04888 0.9948389,-0.107162 1.8678907,-1.1362 0.873055,-1.029038 1.809606,-2.315646 2.392,-2.782762 0.582393,-0.467116 0.723089,-0.713765 1.12692,-1.004571 0.403831,-0.290806 1.391805,-1.080826 1.617006,-1.277451 0.225201,-0.1966258 0.692916,-0.8248844 0.718287,-1.507029 0.0051,-0.1363616 0.0033,-0.2749897 -0.0072,-0.4137885 -0.0051,-0.018608 -0.01002,-0.037416 -0.01546,-0.055676 -0.0087,-0.029196 -0.01799,-0.057962 -0.02749,-0.086263 -0.0095,-0.028301 -0.01932,-0.056113 -0.02956,-0.083514 -0.02047,-0.054802 -0.04228,-0.1079607 -0.0653,-0.1591229 -0.02302,-0.051163 -0.04711,-0.1003093 -0.07217,-0.1477816 -0.02506,-0.047472 -0.05108,-0.093052 -0.07767,-0.1367839 -0.02659,-0.043732 -0.05383,-0.085501 -0.08145,-0.1254425 -0.02762,-0.039942 -0.05572,-0.078 -0.08386,-0.1141011 -0.02814,-0.036101 -0.0564,-0.070549 -0.08454,-0.1027598 -0.02815,-0.032211 -0.05621,-0.062461 -0.08386,-0.090731 -0.02765,-0.02827 -0.0548,-0.054423 -0.08145,-0.078702 -0.02665,-0.024279 -0.05253,-0.046436 -0.07767,-0.066674 -0.02514,-0.020238 -0.04939,-0.038498 -0.07252,-0.054645 -0.02312,-0.016147 -0.04539,-0.030267 -0.06599,-0.042273 -0.04119,-0.02401 -0.0825,-0.046663 -0.12613,-0.068048 -0.02181,-0.010692 -0.04415,-0.02125 -0.06736,-0.031275 -0.02321,-0.010025 -0.04737,-0.019519 -0.07252,-0.028869 -0.02515,-0.00935 -0.0511,-0.018484 -0.0787,-0.027151 -0.02761,-0.00867 -0.0567,-0.016768 -0.08729,-0.024745 -0.03059,-0.00798 -0.06281,-0.015748 -0.09692,-0.023027 -0.03411,-0.00728 -0.0701,-0.014391 -0.108258,-0.020964 -0.03815,-0.00657 -0.07859,-0.012698 -0.121318,-0.018559 -0.04273,-0.00586 -0.08792,-0.011357 -0.135753,-0.016496 -0.04783,-0.00514 -0.09809,-0.010023 -0.151562,-0.014435 -0.05346,-0.00441 -0.110147,-0.00835 -0.169777,-0.012028 -0.05963,-0.00368 -0.122358,-0.00704 -0.188679,-0.00997 -0.06632,-0.00293 -0.136102,-0.00538 -0.209644,-0.00756 -0.147086,-0.00436 -0.309225,-0.00728 -0.488367,-0.00859 -0.08957,-6.557e-4 -0.175646,-0.00243 -0.25879,-0.0055 -0.08314,-0.00307 -0.163405,-0.00721 -0.24023,-0.012372 -0.07683,-0.00515 -0.150366,-0.011298 -0.220985,-0.018215 -0.07062,-0.00692 -0.138247,-0.014677 -0.202771,-0.023026 -0.06452,-0.00835 -0.126017,-0.017352 -0.184555,-0.026807 -0.05854,-0.00945 -0.114021,-0.019324 -0.166684,-0.029556 -0.05266,-0.010232 -0.102601,-0.020936 -0.1495,-0.031618 -0.01942,-0.00442 -0.0362,-0.00894 -0.05464,-0.013403 0.310582,0.090145 0.565695,0.1165069 0.565695,0.1165069 0.175956,0.2348506 1.702932,0.727485 1.479534,2.0022687 -0.223396,1.2747841 -0.928927,1.4841347 -2.247311,1.8510507 -0.767295,0.213544 -1.104935,0.866931 -1.253395,1.376087 z" /><path
     id="path23076"
     style="fill:url(#linearGradient55677);fill-opacity:1;stroke:none;stroke-width:0.175963px;stroke-linecap:butt;stroke-linejoin:miter;stroke-opacity:1"
     d="m 10.423154,11.858075 c -0.0082,0.07184 -0.01679,0.14821 -0.02543,0.234045 -0.0099,0.09869 -0.01991,0.205774 -0.02921,0.319276 -0.0093,0.113503 -0.01801,0.233397 -0.02543,0.357769 -0.0074,0.124373 -0.01357,0.253278 -0.01787,0.384576 -0.0021,0.06565 -0.0037,0.132005 -0.0048,0.198646 -0.0011,0.06664 -0.0017,0.133568 -0.0017,0.200708 4e-5,0.07036 -5.68e-4,0.139093 -0.0017,0.206207 -0.0011,0.06711 -0.0028,0.132699 -0.0052,0.196584 -0.0024,0.06389 -0.0057,0.12594 -0.0093,0.186617 -0.0037,0.06068 -0.0078,0.119848 -0.01272,0.177338 -0.005,0.05749 -0.01054,0.113389 -0.01684,0.167715 -0.0063,0.05433 -0.01328,0.10691 -0.02096,0.158092 -0.0077,0.05118 -0.01632,0.101096 -0.02543,0.149156 -0.0091,0.04806 -0.01864,0.09423 -0.02921,0.13919 -0.01057,0.04496 -0.02195,0.08872 -0.03402,0.130598 -0.01207,0.04188 -0.02488,0.08215 -0.0385,0.120974 -0.01361,0.03882 -0.02811,0.07591 -0.0433,0.111696 -0.01519,0.03579 -0.03131,0.07033 -0.04811,0.103103 -0.01681,0.03277 -0.034125,0.06405 -0.05258,0.09382 -0.018456,0.02978 -0.037929,0.05808 -0.058081,0.08489 -0.020152,0.02681 -0.041008,0.0521 -0.062896,0.07595 -0.021888,0.02386 -0.044739,0.04609 -0.068392,0.06702 -0.047313,0.04186 -0.094602,0.08438 -0.1433142,0.126817 -0.04871,0.04244 -0.099018,0.08478 -0.1515616,0.12613 -0.02627,0.02068 -0.053079,0.04108 -0.080765,0.06117 -0.027687,0.0201 -0.056172,0.03981 -0.085575,0.05911 -0.029403,0.01931 -0.05965,0.0384 -0.091075,0.05671 -0.031425,0.01831 -0.063854,0.03582 -0.097604,0.05293 -0.033752,0.01711 -0.068788,0.0338 -0.1051657,0.04949 -0.036379,0.0157 -0.074104,0.0306 -0.1134138,0.04468 -0.039312,0.01408 -0.080147,0.02727 -0.122693,0.03952 -0.042545,0.01225 -0.086917,0.02347 -0.1330035,0.03368 -0.046089,0.01021 -0.094071,0.01952 -0.1440011,0.02749 -0.00206,3.33e-4 -0.00446,3.58e-4 -0.00652,6.85e-4 0.037809,3.1e-4 0.073686,-4.69e-4 0.1072273,-0.0024 0.00392,-5.4e-4 0.0081,-8.24e-4 0.012031,-0.0014 0.037503,-0.0053 0.073944,-0.01129 0.1099774,-0.01753 0.036034,-0.0062 0.071604,-0.01276 0.1061965,-0.01993 0.03459,-0.0072 0.068204,-0.01494 0.1013848,-0.02303 0.03318,-0.0081 0.065809,-0.01646 0.097604,-0.02543 0.031797,-0.009 0.063042,-0.01835 0.09348,-0.02818 0.03044,-0.0098 0.060242,-0.02026 0.089356,-0.03093 0.02911,-0.01067 0.057422,-0.02186 0.085232,-0.03334 0.027813,-0.01147 0.054908,-0.02315 0.081452,-0.0354 0.026543,-0.01225 0.052374,-0.02481 0.077672,-0.0378 0.025299,-0.013 0.050153,-0.02649 0.074235,-0.04021 0.024082,-0.01372 0.047559,-0.02786 0.070454,-0.04227 0.022898,-0.01441 0.045278,-0.02925 0.067017,-0.04433 0.021741,-0.01508 0.042977,-0.03033 0.063581,-0.04605 0.020604,-0.01572 0.040636,-0.03178 0.060142,-0.04812 0.019507,-0.01633 0.038275,-0.03292 0.056704,-0.04983 0.018429,-0.01691 0.036226,-0.03408 0.053611,-0.05155 0.017385,-0.01747 0.034497,-0.03527 0.050865,-0.05327 0.016367,-0.018 0.03205,-0.03614 0.047426,-0.05464 0.01538,-0.0185 0.03026,-0.03739 0.04468,-0.05636 0.01442,-0.01897 0.02844,-0.03798 0.04193,-0.05739 0.01348,-0.01942 0.0266,-0.03928 0.03918,-0.05911 0.02515,-0.03967 0.04841,-0.08014 0.07011,-0.121319 0.0217,-0.04118 0.04167,-0.08298 0.06014,-0.125442 0.01848,-0.04247 0.03539,-0.08535 0.05086,-0.12888 0.01548,-0.04353 0.02957,-0.0876 0.04227,-0.131972 0.0127,-0.04438 0.02421,-0.08938 0.03437,-0.134378 0.01015,-0.045 0.01898,-0.09 0.02681,-0.135409 0.0078,-0.0454 0.01454,-0.0912 0.02028,-0.136784 0.0057,-0.04559 0.01058,-0.09124 0.01443,-0.136784 0.0039,-0.04555 0.0067,-0.09081 0.0089,-0.136097 0.0022,-0.04529 0.0037,-0.0906 0.0045,-0.135409 7.98e-4,-0.04481 7.31e-4,-0.08924 3.43e-4,-0.133347 -7.98e-4,-0.08822 -0.0037,-0.174692 -0.0079,-0.25879 -0.0043,-0.0841 -0.0099,-0.165803 -0.01581,-0.244011 -0.01178,-0.156416 -0.02483,-0.299085 -0.0323,-0.421349 -0.0037,-0.06113 -0.0068,-0.121576 -0.0093,-0.180775 -0.0025,-0.0592 -0.0045,-0.11723 -0.0059,-0.174245 -0.0027,-0.11403 -0.0031,-0.223399 -0.0021,-0.327181 0.0011,-0.103783 0.0036,-0.201981 0.0072,-0.293501 0.0037,-0.09152 0.0083,-0.176391 0.0134,-0.253635 0.0033,-0.04877 0.0068,-0.08886 0.01031,-0.131285 -0.0056,0.01912 -0.01075,0.03802 -0.01581,0.05671 z" /><path
     id="path23074"
     style="fill:url(#linearGradient40804);fill-opacity:1;stroke:none;stroke-width:0.175963px;stroke-linecap:butt;stroke-linejoin:miter;stroke-opacity:1"
     d="m 5.286197,10.403629 c -0.035614,-0.0069 -0.071252,-0.01363 -0.107228,-0.0189 -0.043236,-0.0063 -0.086847,-0.01157 -0.1305973,-0.01581 -0.043748,-0.0042 -0.087719,-0.0073 -0.1319727,-0.0096 -0.044254,-0.0024 -0.088599,-0.0038 -0.1333474,-0.0045 -0.044746,-7.13e-4 -0.089832,-7.16e-4 -0.1350652,0 -0.045231,7.17e-4 -0.09073,0.0019 -0.13644,0.0038 -0.04571,0.0019 -0.091638,0.0047 -0.1378153,0.0076 -0.046176,0.0029 -0.092554,0.0063 -0.1391893,0.01 -0.093271,0.0073 -0.1874549,0.01602 -0.2825035,0.02509 -0.095049,0.0091 -0.1909039,0.01848 -0.2876585,0.02749 -0.096755,0.009 -0.1944261,0.01756 -0.292814,0.02474 -0.049195,0.0036 -0.098536,0.0068 -0.1481253,0.0096 -0.049588,0.0028 -0.099525,0.0051 -0.1494999,0.0069 -0.049973,0.0018 -0.1001796,0.0032 -0.1505308,0.0038 -0.050352,5.55e-4 -0.1008434,2.14e-4 -0.1515624,-6.88e-4 -0.050718,-9.02e-4 -0.1015157,-0.0026 -0.1525931,-0.0052 -0.051078,-0.0026 -0.1025413,-0.0062 -0.1539679,-0.01065 -0.05143,-0.0045 -0.1028878,-0.0099 -0.1546549,-0.0165 -0.051769,-0.0066 -0.1035875,-0.01442 -0.1556865,-0.02337 -0.052102,-0.009 -0.1046402,-0.01907 -0.1570605,-0.03059 -0.052421,-0.01152 -0.1046708,-0.02418 -0.1574049,-0.03849 -0.02637,-0.0072 -0.052341,-0.01469 -0.077671,-0.02268 -0.025332,-0.008 -0.050266,-0.01662 -0.074578,-0.02543 -0.024315,-0.0088 -0.048164,-0.0179 -0.071485,-0.02749 -0.023317,-0.0096 -0.046049,-0.01955 -0.068392,-0.0299 -0.02234,-0.01035 -0.044254,-0.02124 -0.065643,-0.03231 -0.021389,-0.01107 -0.042099,-0.02226 -0.06255,-0.03402 -0.020451,-0.01176 -0.040609,-0.02401 -0.060142,-0.03643 -0.019533,-0.01242 -0.038415,-0.02509 -0.05705,-0.03815 -0.018635,-0.01305 -0.036885,-0.02656 -0.054642,-0.04021 -0.017757,-0.01365 -0.035335,-0.02736 -0.052241,-0.04158 C 1.1791866,10.005921 1.1630046,9.991269 1.1469366,9.976503 1.1308683,9.9616704 1.1150994,9.9466903 1.0998494,9.9314143 1.0846059,9.9161383 1.0696219,9.90043 1.0551699,9.8846738 1.0407246,9.8689183 1.026911,9.8531075 1.0132438,9.8369024 0.99956997,9.8206973 0.98628851,9.8043805 0.97337948,9.7877564 0.96047046,9.7711322 0.94774765,9.7542481 0.93557685,9.7372356 0.91122861,9.7032106 0.88835017,9.668499 0.86684112,9.6331011 0.84533273,9.5977034 0.82518773,9.5613705 0.80635292,9.5248425 0.78751812,9.4883148 0.77008661,9.4515936 0.75377242,9.4141781 0.73745823,9.3767626 0.72236113,9.3388246 0.70840794,9.3007643 0.69445475,9.2627043 0.68166544,9.2244382 0.66991364,9.1859758 0.65816184,9.1475135 0.64731453,9.1087782 0.63761115,9.0701563 c -0.00971,-0.038622 -0.0182961,-0.077281 -0.0261173,-0.1158195 -0.007821,-0.038539 -0.014871,-0.076919 -0.020963,-0.1151322 -0.006119,-0.038213 -0.0112796,-0.076113 -0.0158087,-0.1137574 -0.004522,-0.037644 -0.008227,-0.074862 -0.0113395,-0.1116954 -0.003126,-0.036834 -0.00572,-0.07351 -0.007562,-0.1092896 -0.001862,-0.03578 -0.002993,-0.070682 -0.003791,-0.1051655 -7.9808e-4,-0.034483 -0.001197,-0.068441 -0.001064,-0.1013851 1.636e-4,-0.032944 7.9808e-4,-0.065067 0.001729,-0.09623 1.2969e-4,-0.0043 5.4469e-4,-0.00777 6.6507e-4,-0.012028 -0.0268689,0.1889323 -0.0310655,0.3563256 -0.0140929,0.4759942 0.0628758,0.443267 0.19407898,1.0769872 0.78083708,1.5822932 0.5867548,0.505307 1.824445,1.393664 2.5896143,2.148332 0.7651707,0.754669 2.442605,2.739615 2.8387811,3.288313 0.3557078,0.492647 1.2476902,0.711614 1.7682245,0.715881 0.00206,-3.29e-4 0.00446,-3.54e-4 0.00652,-6.85e-4 0.049927,-0.008 0.097914,-0.01728 0.1440012,-0.02749 0.046083,-0.01021 0.090457,-0.02143 0.1330035,-0.03368 0.042545,-0.01225 0.083383,-0.02545 0.1226929,-0.03952 0.039312,-0.01408 0.077037,-0.02898 0.1134139,-0.04468 0.036379,-0.01569 0.071417,-0.03238 0.1051657,-0.04949 0.033746,-0.01711 0.066181,-0.03462 0.097604,-0.05293 0.031425,-0.01831 0.061672,-0.0374 0.091075,-0.05671 0.029403,-0.01931 0.057888,-0.03902 0.085575,-0.05911 0.027687,-0.0201 0.054496,-0.0405 0.080765,-0.06117 0.052541,-0.04136 0.1028492,-0.08369 0.1515617,-0.12613 0.04871,-0.04243 0.096002,-0.08496 0.1433141,-0.126817 0.023657,-0.02093 0.046508,-0.04316 0.068392,-0.06702 0.021888,-0.02386 0.042744,-0.04915 0.062896,-0.07595 0.020152,-0.02681 0.039625,-0.05511 0.058081,-0.08489 0.018462,-0.02978 0.03578,-0.06105 0.05258,-0.09382 0.01681,-0.03277 0.03293,-0.06732 0.04811,-0.103103 0.01519,-0.03579 0.0297,-0.07287 0.0433,-0.111696 0.01361,-0.03882 0.02642,-0.07909 0.03849,-0.120974 0.01207,-0.04188 0.02345,-0.08564 0.03402,-0.130598 0.01057,-0.04496 0.02011,-0.09113 0.02921,-0.13919 0.0091,-0.04806 0.01774,-0.09797 0.02543,-0.149156 0.0077,-0.05118 0.01466,-0.103766 0.02096,-0.158092 0.0063,-0.05433 0.01188,-0.110224 0.01684,-0.167715 0.005,-0.05749 0.0091,-0.116661 0.01272,-0.177338 0.0037,-0.06068 0.0069,-0.122732 0.0093,-0.186617 0.0024,-0.06389 0.004,-0.12947 0.0052,-0.196584 0.0011,-0.06711 0.0017,-0.135842 0.0017,-0.206207 -3.9e-5,-0.06714 5.85e-4,-0.134066 0.0017,-0.200708 0.0011,-0.06664 0.0027,-0.132996 0.0048,-0.198646 0.0043,-0.131298 0.01045,-0.260203 0.01787,-0.384575 0.0074,-0.124372 0.01613,-0.244267 0.02543,-0.357769 0.0093,-0.113503 0.01927,-0.220588 0.02921,-0.319277 0.0086,-0.08583 0.01719,-0.162205 0.02543,-0.234045 -0.09156,0.338619 -0.09997,0.600404 -0.09997,0.600404 -0.7519756,1.23211 -0.9528443,1.410982 -1.99846,1.481244 C 7.2790373,14.009996 6.783598,12.676255 6.6578159,12.1856 6.5320377,11.694945 6.4144551,10.862662 5.3831138,10.442121 c -0.032229,-0.01314 -0.064578,-0.02589 -0.096917,-0.03849 z" /><path
     id="path23083"
     style="fill:url(#linearGradient58449);fill-opacity:1;stroke:none;stroke-width:0.175963px;stroke-linecap:butt;stroke-linejoin:miter;stroke-opacity:1"
     d="m 5.0418413,10.312554 c -0.040749,-0.0034 -0.081816,-0.0064 -0.1237238,-0.0089 -0.049475,-0.003 -0.099609,-0.0055 -0.1505314,-0.0076 -0.050924,-0.0021 -0.1024735,-0.0039 -0.1546549,-0.0052 -0.104363,-0.0025 -0.2109944,-0.0033 -0.3192766,-0.0034 -0.216565,-2.42e-4 -0.4396438,0.0029 -0.6629553,0.0041 -0.1116561,5.88e-4 -0.2232889,6.9e-4 -0.3343989,-3.44e-4 -0.1111101,-10e-4 -0.2215431,-0.0032 -0.3306187,-0.0072 -0.054536,-0.002 -0.1088096,-0.0046 -0.1625593,-0.0076 C 2.7493714,10.27341 2.6960879,10.27021 2.6433119,10.2661 2.5905389,10.262 2.5382107,10.2571 2.4865946,10.25166 2.4349786,10.24626 2.3839282,10.24 2.3336582,10.2331 2.2833852,10.2262 2.2339272,10.21862 2.1851891,10.21007 2.1364531,10.20157 2.0885521,10.19224 2.0415318,10.18189 1.9945118,10.17154 1.9484888,10.16018 1.9033727,10.14787 1.8582547,10.13555 1.8140827,10.12211 1.7710568,10.10766 1.7280338,10.09321 1.6860198,10.07767 1.6452706,10.06092 c -0.020371,-0.0084 -0.04037,-0.0168 -0.060142,-0.02578 -0.019773,-0.009 -0.039279,-0.01857 -0.058426,-0.02818 C 1.5075616,9.99735 1.4888336,9.987657 1.4703376,9.977403 1.4518416,9.96715 1.4335126,9.956362 1.4156956,9.945441 1.3978786,9.93452 1.3805796,9.923369 1.3634546,9.911761 1.3463286,9.900152 1.3293366,9.888336 1.3129356,9.876019 1.2801346,9.851383 1.2489026,9.825861 1.2187676,9.800066 1.1886336,9.774271 1.1597356,9.748194 1.1321606,9.721364 1.1045866,9.694534 1.0782366,9.666966 1.0531146,9.639225 1.0279946,9.611484 1.0040586,9.583551 0.9812856,9.555024 0.9585136,9.526497 0.9368589,9.497606 0.9163281,9.468417 0.895804,9.439228 0.8766367,9.409474 0.8582475,9.379748 0.8398583,9.350022 0.8223669,9.320187 0.8060062,9.290048 0.7896454,9.259909 0.7743887,9.229744 0.75995,9.199317 0.745518,9.16889 0.7320104,9.138146 0.719394,9.107555 0.7067843,9.076964 0.6948928,9.046423 0.6839989,9.015793 0.6730984,8.985162 0.6630425,8.954576 0.6537515,8.924031 0.6444605,8.893486 0.6361072,8.862948 0.6283192,8.832613 0.6205312,8.802277 0.6134017,8.772227 0.6070103,8.742226 0.6006253,8.712225 0.5949326,8.682412 0.5898249,8.65287 0.5847039,8.623328 0.5799949,8.593848 0.5760779,8.564888 0.5721539,8.535928 0.5689549,8.50722 0.5661089,8.478968 0.5632489,8.450716 0.5607879,8.422874 0.5588929,8.395454 0.5570309,8.368034 0.5557669,8.341153 0.5547699,8.31469 0.5531069,8.271202 0.5531069,8.230052 0.5533729,8.1895911 c -1.4232e-4,0.00426 -5.5733e-4,0.00773 -6.6507e-4,0.012028 -9.311e-4,0.031163 -0.00153,0.063286 -0.001729,0.09623 -1.6361e-4,0.032944 2.5938e-4,0.066902 0.001064,0.1013851 7.9809e-4,0.034483 0.001929,0.069386 0.003791,0.1051655 0.001862,0.03578 0.004456,0.072456 0.007562,0.1092896 0.003126,0.036833 0.00681,0.074051 0.0113395,0.1116954 0.004522,0.037644 0.00971,0.075545 0.0158087,0.1137575 0.006119,0.038213 0.0131418,0.076593 0.020963,0.1151321 0.007821,0.038539 0.0164073,0.077198 0.0261173,0.1158196 0.00971,0.038622 0.0205507,0.077357 0.0323025,0.1158195 0.0117518,0.038462 0.0245345,0.076728 0.0384943,0.1147885 0.0139532,0.03806 0.0290503,0.075998 0.0453645,0.1134138 0.0163142,0.037415 0.0337457,0.074136 0.0525805,0.1106643 0.0188348,0.036528 0.0389732,0.072861 0.0604882,0.1082586 0.0215084,0.035398 0.0443868,0.070109 0.0687357,0.1041345 0.0121708,0.017012 0.0248936,0.033897 0.0378026,0.050521 0.0129157,0.016624 0.0261971,0.032941 0.0398643,0.049146 0.013674,0.016205 0.027481,0.032016 0.041926,0.047771 0.014452,0.015756 0.029429,0.031465 0.044679,0.046741 0.01525,0.015276 0.031019,0.030256 0.047087,0.045022 0.016061,0.014766 0.032243,0.029421 0.049149,0.043647 0.016906,0.01423 0.034477,0.02793 0.052241,0.04158 0.017757,0.01365 0.036007,0.02716 0.054642,0.04021 0.018635,0.01305 0.037517,0.02573 0.05705,0.03815 0.019533,0.01242 0.039691,0.02467 0.060142,0.03643 0.020451,0.01176 0.041161,0.02295 0.06255,0.03402 0.021389,0.01107 0.043303,0.02196 0.065643,0.03231 0.022346,0.01035 0.045072,0.02031 0.068392,0.0299 0.023317,0.0096 0.047167,0.01868 0.071485,0.02749 0.024315,0.0088 0.049249,0.01743 0.074578,0.02543 0.025332,0.008 0.051303,0.01553 0.077671,0.02268 0.052733,0.01431 0.1049841,0.02697 0.157405,0.03849 0.052421,0.01152 0.1049622,0.02164 0.1570605,0.03059 0.052102,0.009 0.1039193,0.01676 0.1556864,0.02337 0.051769,0.0066 0.1032283,0.01201 0.1546549,0.0165 0.05143,0.0045 0.1028912,0.0081 0.1539679,0.01065 0.051077,0.0026 0.1018749,0.0043 0.1525932,0.0052 0.050718,9.02e-4 0.1012112,0.0012 0.1515623,6.87e-4 0.050353,-5.55e-4 0.1005561,-0.002 0.1505309,-0.0038 0.049973,-0.0018 0.099911,-0.0041 0.1494999,-0.0069 0.049588,-0.0028 0.098931,-0.006 0.1481252,-0.0096 0.098388,-0.0072 0.1960589,-0.01573 0.2928141,-0.02474 0.096754,-0.009 0.1926092,-0.01842 0.2876585,-0.02749 0.095049,-0.0091 0.1892326,-0.01774 0.2825034,-0.02509 0.046635,-0.0037 0.093012,-0.0071 0.1391894,-0.01 0.046176,-0.0029 0.092105,-0.0056 0.1378153,-0.0076 0.04571,-0.0019 0.091207,-0.0031 0.1364399,-0.0038 0.045231,-7.17e-4 0.090317,-7.13e-4 0.1350653,0 0.044746,7.14e-4 0.089094,0.0021 0.1333474,0.0045 0.044254,0.0024 0.088222,0.0054 0.1319726,0.0096 0.043748,0.0042 0.087359,0.0095 0.1305973,0.01581 0.035974,0.0053 0.071612,0.01204 0.1072281,0.0189 -0.081419,-0.03173 -0.1629058,-0.06189 -0.2443557,-0.09108 z" /><path
     id="path23081"
     style="fill:url(#linearGradient23092);fill-opacity:1;stroke:none;stroke-width:0.175963px;stroke-linecap:butt;stroke-linejoin:miter;stroke-opacity:1"
     d="M 7.8173862,0.61636323 C 7.358891,0.72842501 6.9915278,0.9496309 6.7358313,1.2607597 c 0,0 -1.7591037,2.1913346 -2.386501,2.8147241 -0.6273952,0.6233891 -2.4135248,2.174791 -3.0315851,2.6133283 -0.45070789,0.3197933 -0.69138772,0.9884402 -0.76434,1.499124 -8.048e-5,5.624e-4 7.981e-5,0.00116 0,0.00172 -3.1325e-4,0.04046 -2.7335e-4,0.081611 0.001397,0.1250988 9.976e-4,0.026463 0.002261,0.053345 0.004123,0.080764 0.001862,0.02742 0.004389,0.055261 0.007216,0.083514 0.00286,0.028252 0.006052,0.05696 0.009969,0.08592 0.003924,0.02896 0.008646,0.058438 0.013747,0.087982 0.005121,0.029543 0.0107875,0.059355 0.0171854,0.089356 0.006385,0.030001 0.0135209,0.060052 0.0213089,0.090387 0.007788,0.030335 0.0161413,0.060873 0.0254323,0.091418 0.009291,0.030545 0.0193469,0.061132 0.0302474,0.091762 0.0109005,0.03063 0.0227853,0.061171 0.0353951,0.091762 0.0126164,0.030591 0.026124,0.061335 0.040556,0.091762 0.014432,0.030427 0.0296954,0.060592 0.0460562,0.090731 0.0163607,0.030139 0.0338521,0.059974 0.0522413,0.0897 0.0183892,0.029726 0.0375565,0.05948 0.0580806,0.088669 0.0205241,0.029189 0.0421854,0.05808 0.0649575,0.086607 0.0227721,0.028527 0.046708,0.05646 0.071829,0.084201 0.02512,0.027741 0.05147,0.055309 0.079046,0.082139 0.027574,0.02683 0.056471,0.052907 0.086607,0.078702 0.030134,0.025795 0.061366,0.051317 0.094168,0.075953 0.016401,0.012318 0.0334,0.024133 0.050519,0.035742 0.017125,0.011609 0.034417,0.022759 0.052241,0.033681 0.017817,0.010921 0.036153,0.021708 0.054642,0.031962 0.018496,0.010254 0.037217,0.01995 0.056365,0.029557 0.019141,0.0096 0.038654,0.0192 0.058426,0.02818 0.019773,0.009 0.039771,0.0174 0.060142,0.02578 0.040749,0.01675 0.082761,0.03229 0.1257862,0.04674 0.043023,0.01445 0.0872,0.02789 0.1323158,0.04021 0.045118,0.01232 0.091139,0.02368 0.1381592,0.03402 0.04702,0.01035 0.094919,0.01964 0.1436573,0.02818 0.048736,0.0085 0.098198,0.01612 0.1484691,0.02303 0.050273,0.0069 0.1013202,0.01313 0.1529363,0.01856 0.051616,0.0054 0.1039413,0.01032 0.1567173,0.01444 0.052773,0.0041 0.1060609,0.0073 0.1598106,0.01031 0.053751,0.003 0.1080221,0.0056 0.1625592,0.0076 0.1090756,0.004 0.2195087,0.0062 0.3306187,0.0072 0.1111101,10e-4 0.2227429,9.32e-4 0.334399,3.44e-4 0.2233115,-0.0012 0.4463902,-0.0044 0.6629552,-0.0041 0.1082822,1.2e-4 0.2149137,9.85e-4 0.3192766,0.0034 0.052181,0.0012 0.1037331,0.0031 0.1546549,0.0052 0.050924,0.0021 0.1010542,0.0045 0.1505315,0.0076 0.041906,0.0026 0.082976,0.0055 0.1237238,0.0089 C 4.120546,9.9823995 3.2264174,9.7744938 3.0231092,8.7756237 2.7946926,7.6533787 3.7395362,6.7806601 5.0741804,6.415586 6.124461,6.1282963 6.41521,5.2841916 6.4915089,4.9374264 c 2.62e-4,-0.00372 7.981e-4,-0.00727 0.00106,-0.010998 0.00492,-0.073106 0.00788,-0.1486388 0.00928,-0.2268276 0.0014,-0.078189 0.00106,-0.1593024 0,-0.2436678 -0.00106,-0.084366 -0.00299,-0.171965 -0.00552,-0.2636011 -0.00246,-0.091636 -0.00539,-0.187314 -0.00825,-0.2873148 -0.00286,-0.1000007 -0.00572,-0.204319 -0.00791,-0.3137784 -0.00219,-0.1094593 -0.00366,-0.2240098 -0.00412,-0.3440219 -4.39e-4,-0.1200113 4.056e-4,-0.2453566 0.00273,-0.3770147 0.00233,-0.131658 0.00619,-0.2693902 0.01237,-0.4137884 0.00153,-0.0361 0.00352,-0.07174 0.00619,-0.1065404 0.00266,-0.034803 0.00585,-0.068891 0.00962,-0.1024162 0.00379,-0.033526 0.00825,-0.066361 0.013062,-0.098635 0.00479,-0.032269 0.00998,-0.063813 0.015809,-0.094855 0.00585,-0.031045 0.012437,-0.061579 0.019247,-0.091419 0.00681,-0.029835 0.0139,-0.058985 0.021655,-0.087638 0.00775,-0.028658 0.016088,-0.05705 0.024747,-0.084545 0.00866,-0.027494 0.017624,-0.054403 0.027148,-0.080764 0.00953,-0.026363 0.01954,-0.052082 0.029902,-0.077328 0.010362,-0.025246 0.021149,-0.049734 0.032303,-0.073891 0.01116,-0.024155 0.022792,-0.048051 0.03471,-0.071141 0.011918,-0.023091 0.024129,-0.045657 0.036772,-0.067704 0.012643,-0.022054 0.025505,-0.043582 0.038833,-0.064612 0.013328,-0.021029 0.027261,-0.04148 0.041241,-0.061519 0.01398,-0.020032 0.028019,-0.039359 0.042618,-0.058426 0.014598,-0.019061 0.029503,-0.037909 0.044679,-0.056019 0.015177,-0.018117 0.03068,-0.035741 0.046395,-0.052926 0.015716,-0.017185 0.031897,-0.033892 0.048111,-0.05018 0.032442,-0.032569 0.065769,-0.063348 0.1000107,-0.0924489 C 7.1584466,0.9543027 7.1936156,0.927088 7.2293666,0.9012666 7.2651206,0.8754485 7.3013416,0.8511269 7.3383132,0.8284074 7.3752842,0.8056819 7.4128002,0.7842933 7.4506956,0.7644808 7.4885916,0.7446683 7.5269546,0.7262392 7.5654841,0.7091469 7.6040121,0.6920546 7.6427761,0.6762724 7.6816474,0.6617207 7.7205204,0.647169 7.7595774,0.6340604 7.7984977,0.6218564 c 0.00632,-0.001995 0.012583,-0.003591 0.018901,-0.00552 z" /><path
     id="path23069"
     style="fill:url(#linearGradient51941);fill-opacity:1;stroke:none;stroke-width:0.175963px;stroke-linecap:butt;stroke-linejoin:miter;stroke-opacity:1"
     d="m 16.272555,7.635989 c -0.01661,-0.037162 -0.03381,-0.073606 -0.05224,-0.1092896 -0.01901,-0.036816 -0.03921,-0.072717 -0.06014,-0.107915 -0.02094,-0.035198 -0.0428,-0.069567 -0.06564,-0.1031034 C 16.071685,7.282145 16.047795,7.249218 16.023045,7.217389 15.998295,7.18556 15.972695,7.154672 15.946065,7.124596 15.919425,7.09452 15.891765,7.065237 15.863235,7.036958 15.834715,7.008679 15.805305,6.981599 15.774915,6.955163 15.744525,6.928726 15.713345,6.903072 15.681095,6.878523 15.648835,6.853974 15.615535,6.830342 15.581425,6.807725 15.547315,6.785108 15.512215,6.763409 15.47626,6.74277 15.4403,6.72213 15.40339,6.702618 15.365595,6.684001 c -0.0378,-0.018617 -0.07654,-0.036377 -0.116163,-0.052926 -0.03962,-0.01655 -0.07988,-0.031959 -0.121318,-0.046397 -0.04143,-0.014437 -0.08392,-0.02793 -0.127161,-0.04021 -0.04324,-0.01228 -0.08728,-0.023259 -0.132316,-0.033337 -0.04504,-0.010077 -0.09099,-0.018977 -0.137815,-0.026807 -0.04683,-0.00783 -0.09471,-0.01474 -0.143314,-0.020277 -0.0486,-0.00554 -0.0981,-0.00986 -0.148469,-0.01306 -0.05037,-0.0032 -0.101491,-0.00503 -0.153624,-0.00584 -0.05213,-8.18e-4 -0.105241,-5.793e-4 -0.159123,0.00103 -0.05388,0.00161 -0.108656,0.00451 -0.164278,0.00859 -0.05562,0.00408 -0.11208,0.00921 -0.169434,0.015809 -0.114706,0.013201 -0.224566,0.0241 -0.329931,0.03265 -0.105364,0.00855 -0.206123,0.014838 -0.302436,0.019246 -0.09631,0.00441 -0.188079,0.00679 -0.27563,0.00756 -0.08755,7.782e-4 -0.170776,-6.04e-5 -0.249854,-0.00241 -0.07908,-0.00235 -0.154214,-0.00604 -0.225109,-0.010998 -0.0709,-0.00495 -0.137706,-0.011158 -0.200708,-0.018215 -0.063,-0.00706 -0.122283,-0.015066 -0.177682,-0.023714 -0.0554,-0.00865 -0.106914,-0.017767 -0.154999,-0.027494 -0.01299,-0.00263 -0.02362,-0.00557 -0.03609,-0.00825 0.01826,0.00564 0.03637,0.011292 0.0543,0.016496 0.01845,0.00446 0.03522,0.00898 0.05464,0.013403 0.0469,0.010682 0.09684,0.021387 0.1495,0.031618 0.05266,0.010232 0.108146,0.020102 0.166684,0.029556 0.05854,0.00945 0.120032,0.018458 0.184555,0.026807 0.06452,0.00835 0.132151,0.016109 0.20277,0.023026 0.07062,0.00692 0.144159,0.013057 0.220985,0.018215 0.07683,0.00515 0.157088,0.0093 0.240231,0.012372 0.08314,0.00307 0.169219,0.00484 0.25879,0.0055 0.179142,0.00131 0.341281,0.00423 0.488366,0.00859 0.07354,0.00218 0.143322,0.00463 0.209644,0.00756 0.06632,0.00293 0.129048,0.00629 0.188679,0.00997 0.05963,0.00368 0.116309,0.00762 0.169777,0.012028 0.05347,0.00441 0.103728,0.0093 0.151562,0.014435 0.04783,0.00514 0.09302,0.010636 0.135753,0.016496 0.04273,0.00586 0.08316,0.011985 0.121318,0.018559 0.03816,0.00657 0.07415,0.013685 0.108259,0.020964 0.03411,0.00728 0.06633,0.015049 0.09692,0.023027 0.03059,0.00798 0.05969,0.016077 0.0873,0.024745 0.0276,0.00867 0.05356,0.017801 0.0787,0.027151 0.02515,0.00935 0.0493,0.018844 0.07252,0.028869 0.02321,0.010025 0.04555,0.020582 0.06736,0.031275 0.04363,0.021385 0.08493,0.044038 0.12613,0.068048 0.0206,0.012005 0.04286,0.026126 0.06599,0.042273 0.02312,0.016147 0.04738,0.034407 0.07252,0.054645 0.02514,0.020238 0.05102,0.042394 0.07767,0.066674 0.02665,0.024279 0.0538,0.050432 0.08145,0.078702 0.02765,0.02827 0.05571,0.05852 0.08386,0.090731 0.02815,0.032211 0.05641,0.066658 0.08455,0.1027598 0.02814,0.036101 0.05624,0.074159 0.08386,0.1141011 0.02762,0.039942 0.05486,0.08171 0.08145,0.1254425 0.02659,0.043732 0.05261,0.089311 0.07767,0.1367839 0.02506,0.047472 0.04915,0.096619 0.07217,0.1477816 0.02302,0.051163 0.04483,0.1043208 0.0653,0.1591229 0.01024,0.027401 0.02005,0.055212 0.02956,0.083514 0.0095,0.028301 0.01879,0.057067 0.02749,0.086263 0.0055,0.01826 0.01035,0.037068 0.01546,0.055676 -0.01634,-0.2144564 -0.05418,-0.4292558 -0.121319,-0.6361482 z" /><path
     id="path23067"
     style="fill:url(#linearGradient30639);fill-opacity:1;stroke:none;stroke-width:0.175963px;stroke-linecap:butt;stroke-linejoin:miter;stroke-opacity:1"
     d="m 8.550108,0.53250578 c -0.057442,9.51e-5 -0.1138395,0.001729 -0.1694334,0.004456 -0.030992,0.004789 -0.062104,0.00959 -0.094168,0.0158087 -0.041194,0.007994 -0.082924,0.0171256 -0.1254423,0.0278399 -0.042518,0.0107076 -0.085887,0.0229981 -0.1292233,0.0367718 -0.043336,0.0137736 -0.086951,0.0292033 -0.1305973,0.0463953 -0.043649,0.0171921 -0.087149,0.0360934 -0.1305979,0.0570498 -0.021721,0.0104749 -0.043376,0.0215084 -0.064958,0.0329942 -0.021582,0.0114858 -0.043243,0.0235502 -0.064612,0.0360868 -0.021369,0.0125366 -0.042478,0.025552 -0.063581,0.0391793 -0.021103,0.0136273 -0.042126,0.0278532 -0.062896,0.0426177 -0.041527,0.0295292 -0.081027,0.0592046 -0.1189126,0.0896994 -0.037883,0.0304935 -0.074213,0.0615657 -0.1086021,0.0931371 -0.034391,0.031571 -0.06691,0.06382 -0.097948,0.096574 -0.031039,0.032755 -0.060488,0.065962 -0.088325,0.1000101 -0.027833,0.034045 -0.053924,0.069031 -0.078702,0.1044779 -0.02478,0.035448 -0.048244,0.071649 -0.07011,0.1086028 -0.021867,0.036951 -0.042418,0.074502 -0.061519,0.11307 -0.019101,0.038568 -0.036792,0.077935 -0.053272,0.118225 -0.016481,0.04029 -0.031704,0.081604 -0.04571,0.1237245 -0.014006,0.042119 -0.026809,0.085166 -0.038494,0.1292226 -0.011679,0.044061 -0.022114,0.088963 -0.031618,0.1350659 -0.0095,0.046103 -0.017964,0.09334 -0.025432,0.1415949 -0.00747,0.048258 -0.014013,0.09761 -0.019586,0.1481252 -0.00559,0.050512 -0.010255,0.1021163 -0.014093,0.1549995 -0.00386,0.05288 -0.00669,0.1072007 -0.00894,0.1625592 -0.00226,0.05536 -0.00366,0.111835 -0.00446,0.1697773 -0.0016,0.115884 -0.00379,0.2547182 -0.00791,0.4093205 -0.00206,0.077301 -0.00466,0.1585536 -0.0079,0.2429803 -0.00326,0.084427 -0.00748,0.1720333 -0.01237,0.261883 -0.00492,0.089849 -0.010635,0.1817166 -0.017531,0.2752861 -0.00689,0.09357 -0.014771,0.1886348 -0.024056,0.2842218 -0.00928,0.095587 -0.019899,0.1917569 -0.031963,0.2876586 -0.00605,0.048072 -0.0138,0.095484 -0.020624,0.1433137 C 7.085755,3.5313182 7.5846267,3.0002891 8.5198599,2.979483 9.4603459,2.9585599 9.995722,3.7977662 10.33723,4.6147033 c 0.34151,0.8169366 0.202397,0.7586896 0.627213,1.3028838 0.205497,0.2632465 0.562185,0.424579 0.875691,0.5213597 0.01246,0.00268 0.0231,0.00562 0.03609,0.00825 0.04809,0.00973 0.0996,0.018847 0.154999,0.027494 0.0554,0.00865 0.114679,0.016657 0.177682,0.023714 0.063,0.00706 0.129812,0.013259 0.200708,0.018215 0.0709,0.00495 0.146031,0.00865 0.225109,0.010998 0.07908,0.00235 0.162303,0.00318 0.249854,0.00241 0.08755,-7.781e-4 0.179317,-0.00315 0.27563,-0.00756 0.09631,-0.00441 0.197072,-0.010697 0.302436,-0.019246 0.105365,-0.00855 0.215225,-0.019449 0.329931,-0.03265 0.05736,-0.0066 0.113811,-0.011727 0.169434,-0.015809 0.05562,-0.00408 0.110395,-0.00698 0.164278,-0.00859 0.05388,-0.00161 0.10699,-0.00185 0.159123,-0.00103 0.05213,8.181e-4 0.10325,0.00264 0.153624,0.00584 0.05037,0.0032 0.09986,0.00752 0.148469,0.01306 0.0486,0.00554 0.09649,0.012447 0.143314,0.020277 0.04683,0.00783 0.09278,0.01673 0.137815,0.026807 0.04504,0.010077 0.08907,0.021057 0.132316,0.033337 0.04324,0.01228 0.08573,0.025774 0.127161,0.04021 0.04143,0.014437 0.0817,0.029847 0.121318,0.046397 0.03962,0.01655 0.07837,0.03431 0.116163,0.052926 0.0378,0.018617 0.07471,0.038129 0.110665,0.058769 0.03596,0.020639 0.07105,0.042338 0.105165,0.064955 0.03411,0.022617 0.06741,0.046248 0.09967,0.070798 0.03226,0.024549 0.06343,0.050204 0.09382,0.07664 0.03039,0.026437 0.0598,0.053516 0.08833,0.081795 0.02852,0.028279 0.05618,0.057561 0.08283,0.087638 0.02664,0.030077 0.05223,0.060964 0.07698,0.092793 0.02475,0.031829 0.04864,0.064756 0.07148,0.098292 0.02285,0.033536 0.04471,0.067905 0.06564,0.1031034 0.02094,0.035198 0.04114,0.071099 0.06014,0.107915 0.01843,0.035684 0.03562,0.072128 0.05224,0.1092896 C 16.16577,7.3069234 15.984659,6.9977209 15.695861,6.7410371 15.107959,6.2185079 13.116792,4.7186066 12.634033,4.133895 12.151278,3.5491834 11.216241,2.6297655 10.737961,1.9027366 10.259679,1.1757071 9.5997947,0.57216262 8.71404,0.5359289 8.6586795,0.53366766 8.6038896,0.53240402 8.550106,0.53247053 Z" /><path
     id="path23062"
     style="fill:url(#linearGradient47308);fill-opacity:1;stroke:none;stroke-width:0.175963px;stroke-linecap:butt;stroke-linejoin:miter;stroke-opacity:1"
     d="m 7.8173862,0.61636323 c -0.00632,0.001929 -0.012576,0.003525 -0.018901,0.00552 -0.03892,0.0122041 -0.07798,0.0253126 -0.1168503,0.0398643 -0.038873,0.0145518 -0.077634,0.0303339 -0.1161633,0.0474262 -0.038528,0.0170923 -0.076892,0.0355214 -0.1147886,0.0553339 -0.037896,0.0198125 -0.075412,0.0412011 -0.1123823,0.0639266 -0.036971,0.0227188 -0.073193,0.0470405 -0.1089466,0.0728592 -0.035754,0.0258181 -0.070921,0.0530394 -0.105165,0.0821396 -0.034244,0.0291035 -0.067569,0.0598764 -0.1000107,0.0924489 -0.016221,0.016288 -0.032402,0.032987 -0.048111,0.05018 -0.015716,0.017185 -0.031225,0.03481 -0.046395,0.052926 -0.015177,0.018116 -0.030081,0.036958 -0.044679,0.056019 -0.014598,0.019061 -0.028638,0.038388 -0.042618,0.058426 -0.01398,0.020032 -0.027913,0.04049 -0.041241,0.061519 -0.013328,0.02103 -0.026191,0.042565 -0.038833,0.064612 -0.012643,0.022047 -0.024854,0.044613 -0.036772,0.067704 -0.011918,0.023091 -0.023557,0.046981 -0.03471,0.071141 -0.01116,0.024155 -0.021947,0.048643 -0.032303,0.073891 -0.010362,0.025246 -0.020371,0.050964 -0.029902,0.077328 -0.00952,0.026357 -0.018496,0.053272 -0.027148,0.080764 -0.00866,0.027494 -0.016993,0.055892 -0.024747,0.084545 -0.00775,0.028658 -0.014844,0.057801 -0.021655,0.087638 -0.00681,0.029835 -0.013421,0.060375 -0.019247,0.091419 -0.00585,0.031046 -0.011,0.062583 -0.015809,0.094855 -0.00479,0.032269 -0.0093,0.065111 -0.013062,0.098635 -0.00379,0.033526 -0.00695,0.067616 -0.00962,0.1024162 -0.00266,0.034803 -0.00466,0.070441 -0.00619,0.1065404 -0.00619,0.1443982 -0.010029,0.2821304 -0.01237,0.4137884 -0.00233,0.1316581 -0.00319,0.2570034 -0.00273,0.3770147 4.396e-4,0.1200121 0.00193,0.2345626 0.00412,0.3440219 0.00219,0.1094594 0.00505,0.2137777 0.00791,0.3137784 0.00286,0.1000008 0.00579,0.1956785 0.00825,0.2873147 0.00246,0.091636 0.00446,0.1792353 0.00552,0.2636012 0.00106,0.084366 0.0014,0.1654785 0,0.2436678 -0.0014,0.078189 -0.00439,0.1537209 -0.00928,0.2268275 -2.514e-4,0.00373 -7.981e-4,0.00728 -0.00106,0.010998 0.020657,-0.093888 0.025778,-0.1515621 0.025778,-0.1515621 0.00313,-0.00697 0.00612,-0.013693 0.00928,-0.02062 0.00682,-0.04783 0.014572,-0.095242 0.020624,-0.1433138 0.012064,-0.095902 0.022679,-0.1920715 0.031963,-0.2876585 0.00928,-0.095587 0.017166,-0.1906524 0.024056,-0.2842219 0.00689,-0.093569 0.012636,-0.185437 0.017531,-0.2752861 0.00492,-0.08985 0.00909,-0.1774562 0.01237,-0.2618829 0.00326,-0.084427 0.00585,-0.1656792 0.0079,-0.2429803 0.00412,-0.1546024 0.00632,-0.2934366 0.00791,-0.4093206 7.981e-4,-0.057941 0.00219,-0.1144181 0.00446,-0.1697773 0.00226,-0.05536 0.00512,-0.1096761 0.00894,-0.1625592 0.00386,-0.05288 0.00851,-0.104484 0.014093,-0.1549994 0.00559,-0.050512 0.012124,-0.09987 0.019586,-0.1481253 0.00747,-0.048258 0.015928,-0.095493 0.025432,-0.1415949 0.0095,-0.046103 0.019939,-0.091008 0.031617,-0.1350659 0.011679,-0.044054 0.024481,-0.087103 0.038494,-0.1292226 0.014006,-0.042119 0.02923,-0.083434 0.04571,-0.1237245 0.016481,-0.04029 0.034171,-0.079657 0.053272,-0.118225 0.019101,-0.038567 0.039652,-0.076117 0.061519,-0.11307 0.021867,-0.036951 0.045331,-0.073155 0.07011,-0.1086027 0.024774,-0.035448 0.050865,-0.07043 0.078702,-0.104478 0.027833,-0.034045 0.057289,-0.067253 0.088325,-0.10001 0.031039,-0.032755 0.063561,-0.065004 0.097948,-0.096574 0.034391,-0.031571 0.070717,-0.062643 0.1086021,-0.0931371 0.037889,-0.0305001 0.077384,-0.060169 0.1189127,-0.0896994 0.020764,-0.0147646 0.041793,-0.0289904 0.062896,-0.0426177 0.021103,-0.0136273 0.042212,-0.0266494 0.063581,-0.0391793 0.021369,-0.0125366 0.04303,-0.024601 0.064612,-0.0360867 0.021581,-0.0114858 0.04323,-0.0225127 0.064957,-0.0329942 0.043449,-0.0209564 0.086951,-0.0398577 0.130598,-0.0570498 0.043649,-0.0171921 0.087261,-0.0326217 0.1305973,-0.0463953 0.043336,-0.0137736 0.086705,-0.0260641 0.1292233,-0.0367718 0.042518,-0.0107076 0.08425,-0.0198457 0.1254423,-0.0278399 0.032063,-0.006252 0.063175,-0.0110468 0.094168,-0.0158087 -0.2002229,0.009856 -0.3884412,0.0366587 -0.5632884,0.0793895 z" /><path
     style="opacity:1;fill:#ffffff;fill-opacity:1;stroke:none;stroke-width:0.0585596px;stroke-linecap:butt;stroke-linejoin:miter;stroke-opacity:1"
     d="m 7.8905583,6.0683641 c 0,0 -0.585461,0.7292913 -0.794257,0.9367531 -0.208794,0.2074621 -0.803229,0.7237103 -1.008917,0.8696539 -0.205689,0.1459436 -0.279941,0.5104087 -0.259016,0.6579264 0.02093,0.1475175 0.06459,0.3583932 0.259862,0.5265576 0.19527,0.1681643 0.607117,0.4638004 0.861763,0.7149517 0.254646,0.2511512 0.812961,0.9117342 0.944807,1.0943382 0.131846,0.182605 0.485143,0.25236 0.642369,0.236091 0.157228,-0.01627 0.331065,-0.0357 0.6216143,-0.378161 0.290549,-0.34246 0.602264,-0.7706562 0.796082,-0.9261105 0.1938174,-0.1554544 0.2406484,-0.2375049 0.3750414,-0.3342841 0.134394,-0.096779 0.463154,-0.3596314 0.538101,-0.4250676 0.07495,-0.065436 0.230673,-0.2746088 0.239117,-0.5016239 0.0084,-0.227015 -0.03915,-0.4733216 -0.234792,-0.647217 C 10.676682,7.7182764 10.014065,7.2191436 9.8534066,7.0245538 9.6927476,6.8299641 9.3815386,6.5239465 9.2223686,6.2819944 9.0631993,6.0400422 8.8436073,5.8392214 8.5488333,5.827163 8.2540573,5.815105 8.0255523,5.904105 7.8905583,6.0683641 Z"
     id="path23054" /><path
     style="opacity:1;fill:url(#linearGradient64573);fill-opacity:1;stroke:none;stroke-width:0.0585596px;stroke-linecap:butt;stroke-linejoin:miter;stroke-opacity:1"
     d="m 7.8905588,6.0683642 c 0,0 -0.585461,0.7292913 -0.794257,0.9367531 -0.208794,0.2074621 -0.803229,0.7237103 -1.008917,0.8696539 -0.205689,0.1459436 -0.279941,0.5104087 -0.259016,0.6579264 0.02093,0.1475175 0.06459,0.3583932 0.259862,0.5265576 0.19527,0.1681643 0.607117,0.4638004 0.861763,0.7149517 0.254646,0.2511511 0.812961,0.9117341 0.944807,1.0943381 0.131846,0.182605 0.485143,0.25236 0.642369,0.236091 0.157228,-0.01627 0.331065,-0.0357 0.621614,-0.378161 0.290549,-0.34246 0.602264,-0.7706561 0.796082,-0.9261104 C 10.148683,9.6449102 10.195514,9.5628597 10.329907,9.4660805 10.464301,9.3693015 10.793061,9.1064491 10.868008,9.0410129 10.942958,8.9755769 11.098681,8.7664041 11.107125,8.539389 11.115525,8.312374 11.067975,8.0660674 10.872333,7.892172 10.676682,7.7182765 10.014065,7.2191437 9.8534068,7.0245539 9.6927478,6.8299642 9.3815388,6.5239466 9.2223688,6.2819945 9.0631998,6.0400423 8.8436078,5.8392215 8.5488338,5.8271631 8.2540578,5.8151051 8.0255528,5.9041051 7.8905588,6.0683642 Z"
     id="path64281" /><path
     style="opacity:1;fill:url(#linearGradient64790);fill-opacity:1;stroke:none;stroke-width:0.0585596px;stroke-linecap:butt;stroke-linejoin:miter;stroke-opacity:1"
     d="m 7.8905588,6.0683642 c 0,0 -0.585461,0.7292913 -0.794257,0.9367531 -0.208794,0.2074621 -0.803229,0.7237103 -1.008917,0.8696539 -0.205689,0.1459436 -0.279941,0.5104087 -0.259016,0.6579264 0.02093,0.1475175 0.06459,0.3583932 0.259862,0.5265576 0.19527,0.1681643 0.607117,0.4638004 0.861763,0.7149517 0.254646,0.2511511 0.812961,0.9117341 0.944807,1.0943381 0.131846,0.182605 0.485143,0.25236 0.642369,0.236091 0.157228,-0.01627 0.331065,-0.0357 0.621614,-0.378161 0.290549,-0.34246 0.602264,-0.7706561 0.796082,-0.9261104 C 10.148683,9.6449102 10.195514,9.5628597 10.329907,9.4660805 10.464301,9.3693015 10.793061,9.1064491 10.868008,9.0410129 10.942958,8.9755769 11.098681,8.7664041 11.107125,8.539389 11.115525,8.312374 11.067975,8.0660674 10.872333,7.892172 10.676682,7.7182765 10.014065,7.2191437 9.8534068,7.0245539 9.6927478,6.8299642 9.3815388,6.5239466 9.2223688,6.2819945 9.0631998,6.0400423 8.8436078,5.8392215 8.5488338,5.8271631 8.2540578,5.8151053 8.0255528,5.9041055 7.8905588,6.0683642 Z"
     id="path64782" /><path
     style="opacity:1;fill:url(#linearGradient66042);fill-opacity:1;stroke:none;stroke-width:0.0585596px;stroke-linecap:butt;stroke-linejoin:miter;stroke-opacity:1"
     d="m 7.8905588,6.0683644 c 0,0 -0.585461,0.729291 -0.794257,0.936753 -0.208794,0.207462 -0.803229,0.72371 -1.008917,0.869654 -0.205689,0.145943 -0.279941,0.510408 -0.259016,0.657926 0.02093,0.147518 0.06459,0.358393 0.259862,0.526558 0.19527,0.168164 0.607117,0.4638 0.861763,0.714951 0.254646,0.2511516 0.812961,0.9117346 0.944807,1.0943386 0.131846,0.182605 0.485143,0.25236 0.642369,0.236091 0.157228,-0.01627 0.331065,-0.0357 0.621614,-0.378161 0.290549,-0.34246 0.602264,-0.7706566 0.796082,-0.9261106 0.1938172,-0.155454 0.2406482,-0.237505 0.3750412,-0.334284 0.134394,-0.09678 0.463154,-0.359631 0.538101,-0.425068 0.07495,-0.06544 0.230673,-0.274608 0.239117,-0.501624 0.0084,-0.227015 -0.03915,-0.473321 -0.234792,-0.647217 -0.195651,-0.173895 -0.858268,-0.673028 -1.0189262,-0.867618 -0.160659,-0.194589 -0.471868,-0.500607 -0.631038,-0.742559 -0.159169,-0.241952 -0.378761,-0.442773 -0.673535,-0.454831 -0.294776,-0.01206 -0.523281,0.07694 -0.658275,0.241201 z"
     id="path66034" /><path
     style="opacity:1;fill:url(#linearGradient69295);fill-opacity:1;stroke:none;stroke-width:0.0585596px;stroke-linecap:butt;stroke-linejoin:miter;stroke-opacity:1"
     d="m 7.8905588,6.0683642 c 0,0 -0.585461,0.7292913 -0.794257,0.9367531 -0.208794,0.2074621 -0.803229,0.7237103 -1.008917,0.8696539 -0.205689,0.1459436 -0.279941,0.5104087 -0.259016,0.6579264 0.02093,0.1475175 0.06459,0.3583932 0.259862,0.5265576 0.19527,0.1681643 0.607117,0.4638004 0.861763,0.7149517 0.254646,0.2511511 0.812961,0.9117341 0.944807,1.0943381 0.131846,0.182605 0.485143,0.25236 0.642369,0.236091 0.157228,-0.01627 0.331065,-0.0357 0.621614,-0.378161 0.290549,-0.34246 0.602264,-0.7706561 0.796082,-0.9261104 C 10.148683,9.6449102 10.195514,9.5628597 10.329907,9.4660805 10.464301,9.3693015 10.793061,9.1064491 10.868008,9.0410129 10.942958,8.9755769 11.098681,8.7664041 11.107125,8.539389 11.115525,8.312374 11.067975,8.0660674 10.872333,7.892172 10.676682,7.7182765 10.014065,7.2191437 9.8534068,7.0245539 9.6927478,6.8299642 9.3815388,6.5239466 9.2223688,6.2819945 9.0631998,6.0400423 8.8436078,5.8392215 8.5488338,5.8271631 8.2540578,5.8151053 8.0255528,5.9041055 7.8905588,6.0683642 Z"
     id="path69287" /></svg>
