<?xml version="1.0" encoding="UTF-8" standalone="no"?>
<svg
   width="64"
   height="64"
   version="1.1"
   id="svg8"
   sodipodi:docname="org.gnome.Extensions.svg"
   inkscape:version="1.2.2 (b0a8486541, 2022-12-01)"
   xmlns:inkscape="http://www.inkscape.org/namespaces/inkscape"
   xmlns:sodipodi="http://sodipodi.sourceforge.net/DTD/sodipodi-0.dtd"
   xmlns:xlink="http://www.w3.org/1999/xlink"
   xmlns="http://www.w3.org/2000/svg"
   xmlns:svg="http://www.w3.org/2000/svg">
  <defs
     id="defs12">
    <linearGradient
       inkscape:collect="always"
       id="linearGradient1094">
      <stop
         style="stop-color:#82f994;stop-opacity:1"
         offset="0"
         id="stop1090" />
      <stop
         style="stop-color:#49cde6;stop-opacity:1"
         offset="1"
         id="stop1092" />
    </linearGradient>
    <linearGradient
       inkscape:collect="always"
       xlink:href="#linearGradient1094"
       id="linearGradient1096"
       x1="32"
       y1="57.000004"
       x2="32"
       y2="19.175806"
       gradientUnits="userSpaceOnUse" />
  </defs>
  <sodipodi:namedview
     id="namedview10"
     pagecolor="#ffffff"
     bordercolor="#999999"
     borderopacity="1"
     inkscape:showpageshadow="0"
     inkscape:pageopacity="0"
     inkscape:pagecheckerboard="0"
     inkscape:deskcolor="#d1d1d1"
     showgrid="false"
     inkscape:zoom="4.695631"
     inkscape:cx="-1.7037114"
     inkscape:cy="12.351908"
     inkscape:window-width="1920"
     inkscape:window-height="1002"
     inkscape:window-x="0"
     inkscape:window-y="0"
     inkscape:window-maximized="1"
     inkscape:current-layer="svg8" />
  <path
     style="fill:url(#linearGradient1096);fill-opacity:1"
     d="m 11.762501,9.9282435 0.98153,7.8183535 c 0.205068,1.778041 0.5584,3.548425 0.526629,5.336038 -0.01684,0.893569 -0.163669,1.804368 -0.596429,2.58929 -0.216139,0.390545 -0.504002,0.747591 -0.85926,1.020878 -0.355257,0.274723 -0.778389,0.465211 -1.224145,0.521686 -0.723993,0.09334 -1.4422094,-0.164641 -2.1079558,-0.459946 -0.663821,-0.297217 -1.323791,-0.643252 -2.0439329,-0.74424 -0.7052182,-0.100497 -1.4364328,0.04497 -2.066557,0.371881 -0.6296428,0.329285 -1.1581964,0.835656 -1.5437796,1.43057 -0.7706864,1.18887 -0.9492778,3.658182 -0.7576896,5.060515 0.1444132,1.062038 0.5054468,2.121681 1.2092223,2.935322 0.3514065,0.405385 0.7860901,0.745677 1.2785401,0.962483 0.4924501,0.218743 1.0436292,0.31445 1.5794033,0.248883 0.7413219,-0.09193 1.4085124,-0.478611 2.0814792,-0.802145 0.338891,-0.160825 0.6845197,-0.308226 1.0474788,-0.396299 0.3629591,-0.08812 0.7466182,-0.113891 1.1115032,-0.03158 0.39473,0.08758 0.753839,0.300567 1.041702,0.582953 0.28931,0.280475 0.505448,0.628412 0.661896,0.998384 0.308083,0.742327 0.36681,1.559316 0.404358,2.361461 0.228888,4.806565 -0.13485,9.591495 -1.083102,14.310179 3.273881,1.15103 6.499398,2.036172 9.917208,2.646724 1.132201,0.204373 2.307247,0.374284 3.4226,0.09383 0.558399,-0.140228 1.092727,-0.396284 1.517303,-0.781561 0.425059,-0.384804 0.735547,-0.904591 0.82364,-1.47126 0.06402,-0.42069 0.0057,-0.585605 -0.120355,-0.992899 -0.126123,-0.407771 -0.32156,-0.793061 -0.529997,-1.166854 -0.417836,-0.746151 -1.108779,-1.51189 -1.272447,-2.351373 -0.144414,-0.745677 -0.01105,-1.534916 0.325411,-2.21741 0.338409,-0.682022 0.874183,-1.258263 1.501901,-1.691902 1.258322,-0.863414 3.040549,-1.140524 4.568927,-1.153446 1.400809,-0.01081 3.149379,0.19815 4.339345,0.93473 0.594504,0.368533 1.113429,0.865813 1.463391,1.469348 0.351407,0.602082 0.528073,1.31282 0.458754,2.004426 -0.05632,0.532678 -0.252242,1.043368 -0.49293,1.521978 -0.24069,0.480524 -0.526147,0.837063 -0.774539,1.311836 -0.246467,0.4767 -0.757107,0.979729 -0.834127,1.508598 -0.07509,0.531258 -0.0091,0.825376 0.267164,1.284845 0.197365,0.327371 0.491006,0.588687 0.816418,0.789237 0.32493,0.201972 0.682594,0.345553 1.043629,0.474773 2.341506,0.829663 4.993806,0.914558 7.444839,0.502928 2.449984,-0.418059 4.750769,-1.455206 6.681531,-3.011896 l -1.345057,-9.271189 c -0.218065,-1.63016 -0.548771,-2.960944 -0.504003,-4.60401 0.0207,-0.822726 0.263401,-1.656476 0.648983,-2.383481 0.189232,-0.367259 0.447021,-0.695363 0.759616,-0.966805 0.31171,-0.272993 0.68534,-0.466781 1.088877,-0.56476 0.385103,-0.08758 0.788017,-0.0785 1.175045,-0.0094 0.389436,0.06942 0.765392,0.196224 1.132202,0.338854 0.735064,0.28572 1.455206,0.641334 2.237447,0.745662 0.722067,0.09721 1.47061,-0.02969 2.130579,-0.334544 0.661895,-0.306302 1.235218,-0.788748 1.669902,-1.370252 0.870331,-1.164946 1.163973,-3.397949 0.98538,-4.836175 -0.146819,-1.171642 -0.605572,-2.32701 -1.421508,-3.185161 -0.408209,-0.428358 -0.902584,-0.780135 -1.451839,-1.004124 -0.54877,-0.226387 -1.1529,-0.327373 -1.74307,-0.26946 -0.788016,0.07515 -1.517785,0.418785 -2.256702,0.699252 -0.368254,0.142146 -0.746137,0.267545 -1.133645,0.338379 -0.389434,0.0713 -0.793794,0.08422 -1.179376,-0.0019 -0.584395,-0.129231 -1.105246,-0.481965 -1.483127,-0.943823 -0.378364,-0.461861 -0.619053,-1.02423 -0.744693,-1.608135 -0.252242,-1.163027 0.23966,-2.370564 0.410553,-3.548425 C 51.518297,17.017314 51.939472,13.44067 52.009,9.4498405 48.51384,8.3341113 44.519691,7.5540763 40.874803,7.1204376 39.753673,6.9859429 38.588256,6.8907044 37.519596,7.2515701 36.983823,7.4324852 36.48367,7.730182 36.107713,8.1489665 c -0.375955,0.4163917 -0.620495,0.962488 -0.631567,1.523421 -0.0097,0.3943765 0.195334,0.7873165 0.360933,1.1462755 0.167036,0.358958 0.490878,0.689678 0.731568,1.003647 0.481377,0.630331 0.761298,0.72022 1.062161,1.452976 0.331188,0.802152 0.32541,1.725873 0.03948,2.546213 -0.28546,0.818846 -0.840488,1.53485 -1.528379,2.067546 -0.690296,0.533171 -1.510084,0.886388 -2.360197,1.083097 -0.849633,0.196231 -1.929137,0.239306 -2.801875,0.188572 -1.404662,-0.08232 -2.937738,-0.425964 -4.06224,-1.269276 -0.562248,-0.42118 -1.038333,-0.964884 -1.343044,-1.594733 -0.304233,-0.630333 -0.43613,-1.349687 -0.332151,-2.04176 0.142487,-0.940471 0.964441,-1.256742 1.427047,-2.088569 0.231061,-0.416871 0.545769,-0.847143 0.677667,-1.303259 C 27.480452,10.407 27.529558,9.9173785 27.427976,9.4536045 27.322554,8.9673464 27.055391,8.5246306 26.700132,8.1747639 26.344876,7.8271888 25.904897,7.5711312 25.43459,7.4007453 24.496384,7.060932 23.47153,7.0623677 22.475078,7.1202793 18.751879,7.338358 15.109892,8.2930058 11.762484,9.9282925 Z"
     id="path4" />
</svg>
